<?xml version="1.0" encoding="iso-8859-1"?>
<!-- Generator: Adobe Illustrator 19.0.0, SVG Export Plug-In . SVG Version: 6.00 Build 0)  -->
<svg version="1.1" id="Capa_1" xmlns="http://www.w3.org/2000/svg" xmlns:xlink="http://www.w3.org/1999/xlink" x="0px" y="0px"
	 viewBox="0 0 512 512" style="enable-background:new 0 0 512 512;" xml:space="preserve">
<path style="fill:#72A3FC;" d="M414.114,435.495l-65.413-65.412c-5.043-5.043-12.942-5.839-18.891-1.897
	c-79.748,52.838-188.58,7.766-207.613-85.989c-1.419-6.991-7.566-12.016-14.7-12.016H15c-4.3,0-8.394,1.846-11.241,5.068
	s-4.174,7.512-3.645,11.779c24.662,198.73,257.083,291.993,412.608,170.908c3.394-2.643,5.49-6.614,5.757-10.907
	C418.744,442.737,417.156,438.536,414.114,435.495z"/>
<path style="fill:#FD6B82;" d="M234.88,3.759c-3.223-2.847-7.509-4.171-11.779-3.645C107.468,14.464,14.621,106.201,0.114,223.102
	c-0.529,4.268,0.798,8.558,3.645,11.779c2.848,3.223,6.941,5.068,11.241,5.068h92.496c7.134,0,13.281-5.024,14.7-12.016
	c10.782-53.119,52.617-94.954,105.737-105.737c6.991-1.419,12.016-7.566,12.016-14.7V15C239.949,10.7,238.103,6.606,234.88,3.759z"
	/>
<path style="fill:#F9F9F9;" d="M255.069,180.07c-41.355,0-75,33.644-75,75s33.644,75,75,75s75-33.644,75-75
	S296.424,180.07,255.069,180.07z"/>
<path style="fill:#2892FC;" d="M414.114,435.495l-65.413-65.412c-5.043-5.043-12.942-5.839-18.892-1.897
	c-23.125,15.322-48.694,22.395-73.811,22.452v121.356c53.998,0.076,108.983-16.888,156.724-54.057
	c3.394-2.643,5.49-6.614,5.757-10.907C418.744,442.737,417.156,438.536,414.114,435.495z"/>
<path style="fill:#FCB12B;" d="M287.028,0.114c-4.264-0.524-8.557,0.798-11.779,3.645c-3.223,2.848-5.068,6.941-5.068,11.241v92.497
	c0,7.134,5.024,13.281,12.016,14.7c93.752,19.032,138.828,127.863,85.989,207.613c-3.94,5.947-3.147,13.847,1.897,18.892
	l65.412,65.413c2.821,2.822,6.641,4.394,10.605,4.394c0.309,0,0.619-0.01,0.93-0.028c4.293-0.267,8.265-2.363,10.907-5.757
	C579.027,257.19,485.744,24.774,287.028,0.114z"/>
<path style="fill:#DFE4EA;" d="M330.068,255.069c0-41.043-33.143-74.474-74.07-74.976v149.952
	C296.925,329.543,330.068,296.113,330.068,255.069z"/>
<g>
</g>
<g>
</g>
<g>
</g>
<g>
</g>
<g>
</g>
<g>
</g>
<g>
</g>
<g>
</g>
<g>
</g>
<g>
</g>
<g>
</g>
<g>
</g>
<g>
</g>
<g>
</g>
<g>
</g>
</svg>
